<?xml version="1.0" encoding="UTF-8"?>
<svg version="1.1" viewBox="0 0 1024 1024" width="1280" height="1280" xmlns="http://www.w3.org/2000/svg">
<path transform="translate(0)" d="m0 0h1024v1024h-1024z" fill="#F9F2D9"/>
<path transform="translate(494,219)" d="m0 0h13l20 1 1 1 24 4 25 7 9 4-5 4-10 10-9 13-5 13-3 14v4l2-11h2l1-9 6-10 3-6 4-5 7-7 8-7 7-5 13-6 12-4 11-2 100-1 7 1v68l-12 5-19 7-1 5 2 6v20l1 15 12 26 7 21 5 22 3 23v40l-3 24-5 22-8 24-8 18-12 23-9 14-9 12-11 13-8 9-8 7-13 11-17 12-18 10-19 9-24 8-22 5-24 3h-37l-22-3-23-5-21-7-16-7-15-9-9-10-9-11-6-10-7-15-3-11-2-16v-40l2-22 5-16 9-14 11-12 10-10 1-2h2l-2 4-13 13-1 3h-2l-1 3-4 3-1 7-3 3h-2l-2 11 1 4 6-9 29-29 1-2h2l2-4 21-21 4-5h2l2-4 8-10 7-14 2-10h-2l-1 2-3 2v-3l5-12 2-9v-69l-11 11-7 8-32 32-3 4h-2l-2 4-23 23-7 8-17 17-2 3h-2l-2 4-13 13-13 17-6 10-6 16-3 14-1 12v18l2 25-2-1-7-16-7-18-7-25-2-10v-12l4-20 5-15 6-11 8-11 7-9 14-15 11-12 7-7 7-8 20-20 7-8 13-13 7-8 7-7 4-5h2l2-4 7-7 9-11 6-8 7-15 3-9 2-11 1-31 26-6 8-1 3-2z" fill="#163D65"/>
<path transform="translate(720,221)" d="m0 0h10l7 1v64l-4 2h-53l-24 1-10 3-10 6-7 6-8 11-6 14-2 9-1 9-1 21v84l-1 84-3-3-6-2-6-3-6 3-4 1-1-3-2-2-4-2-7-5 13 13 6 12 4 18v8l-2 13-5 12-8 11-8 8-11 7-12 4-8 1h-11l-12-2-9-3-12-7-10-10-7-12-4-12-1-5v-18l3-12 8-16 6-7 12-9 13-5 15-2 13 1 10 2-1-2v-176l1-38 2-11h2l1-9 6-10 3-6 4-5 7-7 8-7 7-5 13-6 12-4 11-2z" fill="#FD6F5D"/>
<path transform="translate(494,219)" d="m0 0h13l20 1 2 2v226l-3 14-5 13-9 14-11 12-13 13-1 2h-2l-2 4-15 15-1 2h-2l-2 4-9 14-5 13-1 6v22l3 12 7 13 8 9 14 8 10 3 21 2v2h-16l-15-3-15-8-9-9-6-9-5-13-3 3-1 2-6 3-5 4-2 6-4 2-7 2-4 3-7 1-3 4-5 1-3-3-2 1-2-14v-61l3-15 6-16 7-11 12-14 33-33 9-13 6-15 2-10 1-13v-195l4-1z" fill="#18A5B5"/>
<path transform="translate(469,223)" d="m0 0h2v194l-2 18-4 13-6 12-9 11-34 34-8 10-8 13-5 14-4 18h-2v10l-1 6h-2l-2 9-1 4-9 3 1 37 4 15 8 16 7 9 5 3 3 5 6 4v2l4 1 5 5-5-1-14-6-15-9-9-10-9-11-6-10-7-15-3-11-2-16v-40l2-22 5-16 9-14 11-12 10-10 1-2h2l-2 4-13 13-1 3h-2l-1 3-4 3-1 7-3 3h-2l-2 11 1 4 6-9 29-29 1-2h2l2-4 21-21 4-5h2l2-4 8-10 7-14 2-10h-2l-1 2-3 2v-3l5-12 2-9v-69l-11 11-7 8-32 32-3 4h-2l-2 4-23 23-7 8-17 17-2 3h-2l-2 4-13 13-13 17-6 10-6 16-3 14-1 12v18l2 25-2-1-7-16-7-18-7-25-2-10v-12l4-20 5-15 6-11 8-11 7-9 14-15 11-12 7-7 7-8 20-20 7-8 13-13 7-8 7-7 4-5h2l2-4 7-7 9-11 6-8 7-15 3-9 2-11 1-31 26-6z" fill="#1A2843"/>
<path transform="translate(529,222)" d="m0 0 13 1 25 6 18 6 1 2-8 6-7 7-9 13-5 13-3 14v220l-10-1-13-1-15 2-13 5-9 7-5 5-6 8-5 11-3 12v18l3 12 7 14 9 10 10 7 8 4 8 2 9 1h11l11-2 10-4 11-7 7-7 7-10 5-12 2-13v-8l-4-18-8-16-4-2-7-7h3l7 5 3 1 2 3v3l6-3 5-2 9 5 4 1 1-81v-84l1-21 2-13 3-10 6-12 9-11 11-8 10-4 4-1 32-1h45l4-1-1 5-30 11-1 4-15 2-11 4-9 6-8 7-7 11-5 13-3 20h-1l-1-7-2-2-2 2-1 5-3 1-4-1-2 17h-2l-1 142-2 33-1 10-2 2-2-11-5 1-1 7h-1l-2 28-3 14-3 9-6 8-7 8-9 4-21 3h-73l-10-3-11-6-10-9-8-14-3-8-1-6v-22l3-12 7-14 8-11h2l2-4 15-15 1-2h2l2-4 19-19 9-13 7-14 3-11 1-7z" fill="#1B2844"/>
<path transform="translate(444,337)" d="m0 0h1v70l-3 12-5 11 4-3h2l-1 10-7 14-9 11-5 5-9 10-16 16-1 2h-2l-2 4-28 28-6 9-2-2 1-9 2-5 4-3 1-7 4-2 2-4 2-2 6-7 9-9 1-2h-2l-2 4-16 16-7 10-5 8-5 16-2 22v40l3 21 5 13 8 15 10 13 8 8v2l-5-2-17-11-13-11-7-6v-2l-4-2-11-12-11-14-10-15-6-10-4-8-1-5-2-22v-18l2-18 5-17 7-14 9-12 9-11 12-12 7-8 20-20 7-8 19-19 7-8 31-31 7-8z" fill="#FB9459"/>
<path transform="translate(432,230)" d="m0 0h2l1 2v29l-3 15-6 14-7 12-10 11-7 8-4 5-18 18-7 8-13 13-7 8-16 16-3 4h-2l-2 4-13 13-7 8-13 14-12 17-8 16-5 18-2 13v7l-2-1-2-13-1-17v-19l2-23 5-27 5-17 2-11 5-12 8-16 9-16h2l2-5 2-4 3-3 4-6 12-14 5-5 5-6 8-6 5-5 7-6h2v-2l12-8h2v-2l6-2 1-3 33-17z" fill="#1FD9C0"/>
<path transform="translate(695,306)" d="m0 0h10l2 7v34l-1 189-2 4-1-24h-7l-5 4-6 7-9 2-8 5-10 3-6 7h-2l-1 20-2 1v-205l3-14 6-14 8-10 10-8 12-6z" fill="#1ABCBC"/>
<path transform="translate(630,222)" d="m0 0h74v1l-12 1v4l-3 3-4 6-4 4-3 6-10 7-6 8h-2v2l-9 4-8 11-6 4-3 4-2 5-3 2v3h-2v2l2 1-6 3v3l-5 4h-4l-8 10-1 2h-2l-2 6-7 8-5 2-2 2-3 7-5 5-6 4-9 11-6 5h-2l-1 13-1 71h-1v-124l1-38 2-11h2l1-9 6-10 3-6 4-5 7-7 8-7 7-5 13-6 12-4z" fill="#FBA45A"/>
<path transform="translate(441,427)" d="m0 0h2l-1 10-7 14-9 11-5 5-9 10-16 16-1 2h-2l-2 4-28 28-6 9-2-2 1-9 2-5 4-3 1-7 4-2 2-4 2-2 6-7 9-9 1-2h-2l-2 4-16 16-7 10-5 8-5 16-2 22v40l3 21 5 13 8 15 10 13 8 8v2l-5-2-17-11-13-11-7-6v-2l-4-2-11-12-11-14-10-15-6-10-4-8-1-5-1-14 1-16 5-9h6l4-4 7-4 9-6 9-4 6-8 7-6 8-3 3-4 5-2 1-2 6-2h6l3-4 1-8 1-2 6-2 2-2 3 1 4-5v-1-2l5-2 1-2 8-6 5-5 3-4h2v-2h5l3-4h2l4-8h2v-2l5-2z" fill="#FD6E5D"/>
<path transform="translate(736,286)" d="m0 0 1 4-12 5-19 7-1 4-15 2-11 4-9 6-8 7-7 11-5 13-3 20h-1l-1-7-2-2-2 2-1 5-3 1-4-1-2 17h-2l-1 142-2 33-1 10-2 2-2-11-5 1-1 7h-1l-1 9-2 1v-82l1-146 7-11 5-8 3-3 8-10 5-6 8-7 14-10 9-4 9-2 15-1 4-1h34z" fill="#192843"/>
<path transform="translate(514,460)" d="m0 0h6v7l-2 7-3 7-2 1 1 4-8 10-18 18-1 2h-2l-2 4-15 15-1 2h-2l-2 4-9 14-5 13-1 6v22l3 12 7 13 8 9 14 8 10 3 21 2v2h-16l-15-3-15-8-9-9-6-9-5-13-3 3-1 2-6 3-5 4-2 6-4 2-7 2-4 3-7 1-3 4-5 1-3-3-2 1-2-14v-34l1-14h3 2v-2l-2-1h2v-3l4-2h6v-2l10-6 4-6 8-10 10-7 4-3 6-1v-2h2l2-4 6-8 4-4 4-1 2-6 8-5 3-4 2-2 9-6 5-5 8-6h2l1-4 4-4 1-4h2z" fill="#188EAA"/>
<path transform="translate(573,532)" d="m0 0 5 1 6 8 5 11 3 11h2v8l-2 13-5 12-8 11-8 8-11 7-12 4-8 1h-11l-12-2-9-3-12-7-8-8 1-3h-2l-2-4 1-4 6-1 5-5h2l2-4 3-1v-2l9-7 7-2v-2l9-7 14-9 5-5 4-2 2-4 4-3h2v-2z" fill="#F32B69"/>
<path transform="translate(646,401)" d="m0 0h1l1 163 1-20 2-2h2l5-6 12-4 6-4 9-2 9-10 3-1h7l1 21h1l1 34-2 6-1-4-7 1-12 7-5 3-6 3h-2v2l-7 4-9 2-2 2h-3l-1 2-2 20h-1l-1-10-2 3-2-3h-2v-6l-3 3-2 4-3 1-4-2-1-2 2-83 1-1 1-10h2v-7l-1-1v-6l2-10h-2v-14l4-4 3-7v-26l1-5v-5h1l1-9 3-7z" fill="#18537B"/>
<path transform="translate(444,602)" d="m0 0 3 3 5 12 7 10 8 7 13 7 15 3 16 1v-2h-12v-1h18l7 2 1 2-3 2v2h3v6h-3v6l-9 3-3 3-9 3h-5l-1-2-2 3-1 3-9 2-2 3-8 4-15 1-9 4-1 4-4 2-3-1v-2l-6-1-13-9v-2l-4-2-5-5-2-4h-2l-9-14-4-8-2-7-2-1-1-9 1-5h1l1 6 2-1 2 3 2-1 3 1 2-4 1-1 9-2 4-3 7-1 2-2 2-6 8-6 5-4z" fill="#18547C"/>
<path transform="translate(531,507)" d="m0 0 13 1 12 3 11 6 12 11 5 5 6 12 3 12v7l-2-1-4-13-5-10-6-7-5 1-9 6h-2v2l-7 5-10 10-14 9-7 6h-2v2l-10 5-4 4h-2v2l-8 7-4 4-6 1v3l2 2-1 2h2v2l-3-1-7-12-4-12-1-5v-18l3-12 8-16 6-7 12-9 13-5z" fill="#FD705C"/>
<path transform="translate(432,230)" d="m0 0h2l1 2v29l-3 15-6 14-7 12-10 11-7 8-4 5-10 10-4-2 2-4 7-3v-4-3h2l1-3-4 1-6-2v-2h-2v2l-6-2-3-2-7-2-7-8h-1l-1-2h-2l-4-4-8 2-1-4-1-3-4 3-2-1 1-2-10 10-1 2h-2l-2 4-10 12-9 13-12 21-9 19-4 11h-1l1-8 5-12 8-16 9-16h2l2-5 2-4 3-3 4-6 12-14 5-5 5-6 8-6 5-5 7-6h2v-2l12-8h2v-2l6-2 1-3 33-17z" fill="#53F5C2"/>
<path transform="translate(494,219)" d="m0 0h13l20 1 2 2v194h-1l-2-83h-1l-1-19-3 1-4-8-3-2v-3l-23-3h-8l-5 4-2-1-2 29-1 23-1 70h-1l-1-202 4-1z" fill="#54F5C2"/>
<path transform="translate(427,290)" d="m0 0h2l1 5-4 16-6 12-3 4h-2l-2 4-5 6h-2l-2 4-4 5-7 8-5 4-3 3-3 5-4 3h-2l-2 4-9 9-4 6-5 5-12 11-1 2h-2l-2 4-5 6-8 6-2 5-9 8-4 6-7 9-5 7-6 13-4 16v17l-1 10 2 1v6l-1 5 1 35h-3l-1-3h-2l-6-15-7-25-2-10v-12l4-20 5-15 6-11 8-11 7-9 14-15 11-12 7-7 7-8 20-20 7-8 13-13 7-8 7-7 4-5h2l2-4 7-7 9-11 6-8 2-5 3 1z" fill="#163E66"/>
<path transform="translate(483,298)" d="m0 0h8l21 3 2 1 1 3 5 5 1 4 2-2h2l1-6h1l1 60v59h-1v-46h-2l-1 3-5-5-1-2-5 1-5 7h-3l-2 4-5 5h-2l-2 4-9 6-3 3-5-1-2 1-1 12h-1l-1-35v-28l2-37 1-15h3z" fill="#1FD9C0"/>
<path transform="translate(695,306)" d="m0 0h10l2 7v34l-1 28h-2v9l-1 3-7-1-5-1-2 5-4 5-7 4-5 2-7 7-10 1-2 2h-3l-2-3-2-24v-24l3-14 6-14 8-10 10-8 12-6z" fill="#1FD9C1"/>
<path transform="translate(706,347)" d="m0 0 3 3 11 24 7 21 5 22 3 23v40l-3 24-5 22-8 24-8 18-4 8h-1z" fill="#192843"/>
<path transform="translate(610,416)" d="m0 0h1v36l-1 84-3-3-6-2-6-3-6 3-4 1-1-3-2-2-4-2-6-5-4-1-9-6-5-2-1-3v-12l2-32 9-2 3-1v-2h2v-3l7-2 2-6 4 2 2-5 13-9 4-4 5-3h2l1-2z" fill="#F22B69"/>
<path transform="translate(349,534)" d="m0 0 1 4-2 22v40l3 21 5 13 8 15 10 13 8 8v2l-5-2-17-11-13-11-7-6v-2l-4-2-11-12-11-14-10-15-6-10-5-10 1-9 5-1 1 6h1l2-7 10-4 4-5 7-1 6-5 7-2 1-4 4 1 2 2 2-4 1-8z" fill="#FD4F63"/>
<path transform="translate(442,409)" d="m0 0h2l-2 10-5 10-4 4-4 7h-2l-2 4-4 1-2-1v2l-8 7-5 6-3 3-6 3 1 1-6 7-2 1h-3l-2 2-6 2v8l-4 5h-8l-4 1-1 3-5 1-2 5-11 4-7 7-3 5-4 3-8 3-11 8-5 3-2 2h-5l-5 8-1 16h-1l-1-8v-18l6-18 5-1 4-5 12-6 11-8 8-7 7-6 6-5h2v-2l5-3 1-2 5-3 9-10 6-5 7-8 15-9 3-4 5-3 3-4 7-1v-2h2l2-4 7-3h4l2-5 3 1v3h2z" fill="#FB835A"/>
<path transform="translate(610,347)" d="m0 0h1v21l-1 76h-1l-1-15-8 5h-2l-1 3-13 9-2 4-4-1-1 5-2 2h-6v3h-2v2l-5 3h-7v15l-1 17h-1v-40l1-43 1-8 2-1 3 3 6-2 3-6 6-4 4-4 4-7 7-10 12-9 4-2h3l-1-9z" fill="#FD4F63"/>
<path transform="translate(284,368)" d="m0 0 2 2-3 9-1 2h2l1-3h2v-2l3-1 8 2v-2l12 1 2 1h27v3l3 4-8 9h-2l-2 4-13 13-7 8-13 14-12 17-8 16-5 18-2 13v7l-2-1-2-13-1-17v-19l2-23 5-27 7-23z" fill="#19BCBC"/>
<path transform="translate(285,740)" d="m0 0h11l17 14 13 10 5 3 14-12 11-9 7-6h11l1 1v67h-14l-2-4v-33l1-3-6 4-13 11-10 8-7-4-14-12-8-6-1 38-1 1h-13l-2-1z" fill="#1B2843"/>
<path transform="translate(444,337)" d="m0 0h1v55l-2-3h-3l-10 1-5 5-2-1-10 5-10 8-6 7-5 2-2 4-8 6-5 5-6 4-10 8-3 3-3 5-6 3-3 5-5 3-4 6-1 1h-9l-2 6-3 3-4 2-2 4-5 1-2 3-3 1-4 8-3 9-3 1 3-10 6-12 9-12 9-11 12-12 7-8 20-20 7-8 19-19 7-8 31-31 7-8z" fill="#FAA75F"/>
<path transform="translate(514,374)" d="m0 0 5 1 4 4h4l1 37h1v32l-3 14-4 10-2-2h2l-1-4 1-3 3-12 1-11v-14h-2l-2-3-9 3-4 5-6 1-3-1-1 5-8 6-5 4-1 5-4 5-5 3-3 3-9 3-5 7-6 3-3 3-3 1-2 4h-2l2 4-4-1-1 3-2 1h2v2l-4 2h-3l-1 5-6 2 1 5-3 1-4-2-3 3-2 4-3-2 7-7 2-4 31-31 9-13 6-15 2-10 1-13h1l1-35h1l1 22 3-2v2h2l1-2v3l4-1 2-4 8-5 5-5 6-7h3l2-4z" fill="#1ABDBC"/>
<path transform="translate(674,222)" d="m0 0h30v1l-12 1v4l-3 3-4 6-4 4-3 6-10 7-6 8h-2v2l-9 4-8 11-6 4-3 4-2 5-3 2v3h-2v2l2 1-6 3v3l-5 4h-4l-8 10-1 2h-2l-2 6-7 8-5 2-2 2-3 7-5 5-6 4-9 11-6 5h-2l-1 13-1 71h-1v-80l1-24 1-8 4-1 5-3 14-12h2l2-4 5-8h2l1-3 5-4 4-5 3-7 9-8 7-8 4-1v-2h2v-3l4-3 4-7 11-8 5-5 8-7 8-9 2-4h2l1-3 2-1z" fill="#FC835A"/>
<path transform="translate(695,465)" d="m0 0h7l2 2 1 41h1v28l-2 4-1-24h-7l-5 4-6 7-9 2-8 5-10 3-6 7h-2l-1 20-2 1v-61h1l1-12 2-2h3l4-2 4-5 7-3 7-2 8-6 3-1 4-5z" fill="#198EAA"/>
<path transform="translate(643,359)" d="m0 0 3 1 1 9v32l-2 13-2 6-1 11-1 4-1 5v23l-5 10-2 1-1 14h2v8l-1 2v6l1 4-1 4h-2v10l-1 1-2 69-3 14-5 8h-2l-3 7-3 3h-4l-1 4-12 7-2-1 9-10 5-10 3-11 1-7 2-33 3-3 5-1 2 7 1 3 2-24 1-26 1-135 2-1 2-14 1-2h7v-6z" fill="#153D65"/>
<path transform="translate(680,287)" d="m0 0h8l7 1v1l-15 1-11 3-10 5-12 9-5 5h-2l-2 4-9 10-3 5h-2l-2 5-9 14-1 146v48l-1 35-1 12-6 10-4 2-2-2-7-1-1 4h-3l-1-2-4 4-3 6-6 3-6 4-2-1 9-7 9-10 6-12 2-5 2-13v-8l-4-18-8-16-4-2-7-7h3l7 5 3 1 2 3v3l6-3 5-2 9 5 4 1 1-81v-84l1-21 2-13 3-10 6-12 9-11 11-8 10-4 4-1z" fill="#6D1D47"/>
<path transform="translate(460,740)" d="m0 0h16v25h29v-22l1-3h15l1 4v58l-1 5-2 1h-12l-2-3v-24h-29v26l-3 1h-12l-1-1z" fill="#1B2743"/>
<path transform="translate(544,740)" d="m0 0h16l1 41 3 5v2l9 3 10-2 5-5 1-2 1-38 1-4h16v45l-4 9-7 8-8 5-7 2h-11l-9-3-9-6-6-8-3-10v-41z" fill="#1B2743"/>
<path transform="translate(573,532)" d="m0 0 5 1 6 8 5 11-1 4-3-3-1 7-3-1v-2h-3v2l-9 4-6 5-3 1-4 5-8 5h-2v2l-13 9-4 1v2l-6 3-10 8-4 3-2 3-5-1 1 6h-3l1 2-5-2-8-8 1-3h-2l-2-4 1-4 6-1 5-5h2l2-4 3-1v-2l9-7 7-2v-2l9-7 14-9 5-5 4-2 2-4 4-3h2v-2z" fill="#FD4E64"/>
<path transform="translate(394,740)" d="m0 0h46l1 10-1 6h-30v10h24l1 2v11l-1 3h-24v9l31 1v15l-3 1h-42l-2-2z" fill="#1A2843"/>
<path transform="translate(650,222)" d="m0 0h24l-3 7-3 3h-2l-2 5-7 8-7 7-5 3-5 5-7 5-6 9-3 1v3h-2v2l-6 4-9 10-5 5-3 6-7 8-3 3h-2l-2 5-5 7-10 8-8 7h-3l-1 3-2 1-1 5-1 24h-1v-44l3-9 10-5 6-8 5-5 2-4h2v-2h3l1-4 4-5 7-2 8-11 4-3 3-5 4-4 5-9 9-7 4-2 9-10 3-1 7-11 1-1z" fill="#FA9459"/>
<path transform="translate(732,223)" d="m0 0h3l1 2v62l-3 1h-67l2-4 5-2 1-6 9-3 2-5 7-6 9-6h3v-2h2l2-4 11-12 4-4 4-10z" fill="#FD4E64"/>
<path transform="translate(703,422)" d="m0 0h1v45l-5-1-8 1-4 5-5 3-8 5-9 2-5 4-5 5-5 1-1 24h-1l-1-12v-23h1l1-30 1-3 5-3 12-2 8-2 4-6h3l2-4 8-2 2-5 7 1 1-2z" fill="#18A5B6"/>
<path transform="translate(641,637)" d="m0 0h5l1 6v5l2 2-12 10-15 10-16 9-19 9-24 8-22 5-24 3h-37l-22-3-3-2 18 2 12 1h27l20-2 3-2-7-1v-4l17-1 4-4 4-2h8l4-9 8-4 3-1 4 1 11-8 4-6h18v-2h10l-2-3-2 1v1h-5v-4l16-10 8-1v-2z" fill="#173256"/>
<path transform="translate(389,560)" d="m0 0h2l1 71 1 6 2 3 2 7 6 11 6 9v2h2l5 6v2l6 3v2l4 2 11 7 2 1v3l7 1 3 2-10-1-20-6-8-7-3-1v-2l-4-2-5-5v-2l-4-1-7-8-7-12-5-13-2-9v-37l9-3 1-7 2-6h2z" fill="#153358"/>
<path transform="translate(531,507)" d="m0 0 13 1 12 3 11 6 12 11 1 3h-3l-5-5-1-3-5-2-5-3-14-5v2l2 1-7 3-11 7-9 6-4 4h-6l-1 3-13 8-9 7-5 6-6 5-1 15h-2l-1-4v-18l3-12 8-16 6-7 12-9 13-5z" fill="#FBA45A"/>
<path transform="translate(547,513)" d="m0 0 7 1 7 3 5 3v1h-6l-1 5-3 2h-4v2h-2v2l-12 9-2 3-5 3-6 5-5 2-2 4-8 5-13 8-3 5-6 1-2 4-5 3h-2l1 2v7l-2-3-3-10h2v-15l10-9 5-5 6-5 10-6 4-4 7-2 7-6 11-7 10-6z" fill="#FB8459"/>
<path transform="translate(432,230)" d="m0 0h2l1 2v29l-3 15-6 14-7 12-9 10-1-3 4-5h2l2-6 3-3 3-11 2-8h-2l1-3-4 1-2-4v-3l-7-1v-2l-4-2v-2h-2l1-3-2-1v-2h-6v-5l-9 4-18 10-13 10-14 12-16 16-1 2h-2l-2 4-10 12-9 13-12 21-9 19-4 11h-1l1-8 5-12 8-16 9-16h2l2-5 2-4 3-3 4-6 12-14 5-5 5-6 8-6 5-5 7-6h2v-2l12-8h2v-2l6-2 1-3 33-17z" fill="#9CEDCE"/>
<path transform="translate(630,740)" d="m0 0h15l1 1 1 50 30 1 1 1v13l-3 2h-43l-2-1z" fill="#1B2743"/>
<path transform="translate(441,427)" d="m0 0h2l-1 10-7 14-9 11-5 5-9 10-16 16-1 2h-2l-2 4-28 28-6 9-2-2 1-9 2-5 4-3 1-7 4-2 2-4 2-2 6-7 9-9 2-5 20-20 1-2h2v-2l9-9 7-8h2l4-8h2v-2l5-2z" fill="#EA2A67"/>
<path transform="translate(271,411)" d="m0 0 1 3 7-1v2h5v-2h5l4 1h9v3l-3 2v5l3-1 4-4v3l-9 10-12 17-8 16-5 18-2 13v7l-2-1-2-13-1-17v-19l2-23 3-18z" fill="#18A4B5"/>
<path transform="translate(339,593)" d="m0 0h5l2 7h2l3 21 5 13 8 15 10 13 8 8v2l-5-2-17-11-13-11-7-6v-2l-4-2-10-11 1-4-1-4-3 1v-3-5l-3-1 1-4 6-4 7-8 4-1z" fill="#F32D69"/>
<path transform="translate(494,219)" d="m0 0h13l20 1 2 2v194h-1l-1-50-1-78-1-32-1-17h-4l-1-8h-3l-1 2-11-3-4-6-11-1-16 1v30l-1 170h-1l-1-202 4-1z" fill="#9AEECE"/>
<path transform="translate(627,526)" d="m0 0h1v66l-3 14-5 8h-2l-3 7-3 3h-4l-1 4-12 7-2-1 9-10 5-10 3-11 1-7 2-33 3-3 5-1 2 7 1 3 2-24z" fill="#153459"/>
<path transform="translate(695,306)" d="m0 0h10l2 7v33l-4-2-1-15-3-2-11 1v-2l-6-1-2 3-4 1-3-1v-2h-6l-3 4h-2l-1 4-5 8-6 15-1 36h-1l-1-9v-24l3-14 6-14 8-10 10-8 12-6z" fill="#52F4C1"/>
<path transform="translate(390,568)" d="m0 0h1l1 63 1 6 2 3 2 7 6 11 5 9-5 1v-3h-2l-1 2-1-2h-4l-6-8-4-2-3-15-3-1-1-7-3-5v-8l5-8 4-4h2v-10l3-4z" fill="#163F67"/>
<path transform="translate(547,513)" d="m0 0 7 1 6 3v2h-8l-1 4-14 8-7 5-5 3-5 5-7 4-5 4-5 3-5 5-4 1-6 7-7 5h-2v16l-2-1-2-8h2v-15l10-9 5-5 6-5 10-6 4-4 7-2 7-6 11-7 10-6z" fill="#FB9459"/>
<path transform="translate(688,604)" d="m0 0 2 1-9 12-11 13-8 9-8 7-4 2-2-6v-2l1-21h5l8-4h2l1-3 5-1 1-2 4 1 1 2 8-1 2-6z" fill="#153358"/>
<path transform="translate(409,324)" d="m0 0 7 1-2 5-6 7h-2l-2 4-4 5-7 8-5 4-3 3-3 5-4 3h-2l-2 4-9 9-4 6-5 5-12 11-1 2h-2l-2 4-5 6-8 6-5 5 2-5 5-6 4-4 3-5 4-3v-2l4 1 1-8 3 1v-3l4-1 1-7 7-3 1-6 6-1h2v-7l6-3 2-5 6-2h4l-2-5h2v2h2l-1-3h2l1-5 5-5 4-2 2-5 5-1v-7z" fill="#18537B"/>
<path transform="translate(531,507)" d="m0 0 13 1 12 3 11 6 12 11 1 3h-3l-5-5-1-3-5-2-5-3-13-5-5-1h-19l-12 3-13 7-7 6-6 8-5 10-3 10-1 4-1 20-2-4v-18l3-12 8-16 6-7 12-9 13-5z" fill="#F6F1D6"/>
<path transform="translate(288,494)" d="m0 0h1v9l-1 10 2 1v6l-1 5 1 35h-3l-1-3h-2l-6-15-7-25-2-11h2l2 10 3 8 1 9h3l2-5 1-5-3-4 1-7 5 1v-13z" fill="#153459"/>
<path transform="translate(643,359)" d="m0 0 3 1 1 9v12h-1l-1-5-1 7h-4l-1 9-7 8-2 4-1 31h-1v-51l2-1 2-14 1-2h7v-6z" fill="#153459"/>
<path transform="translate(427,290)" d="m0 0h2l1 5-4 16-6 12-4 4v-2h-9l-2-1v3h-3l-1-3 3-6 10-11 8-11 2-5 3 1z" fill="#163D65"/>
<path transform="translate(695,306)" d="m0 0h10l2 7v33l-2-1-1-21v-13h-8l-15 4-9 5-8 7-2 5-6 10-6 15-1 36h-1l-1-9v-24l3-14 6-14 8-10 10-8 12-6z" fill="#96EACE"/>
<path transform="translate(267,442)" d="m0 0h1l1 11 5 1 1 3-1 2 4-1 2-6h3l-6 13-5 18-2 13v7l-2-1-2-13-1-17v-19l1-10z" fill="#198DA8"/>
<path transform="translate(456,546)" d="m0 0h2l-2 6-5 10-3 12v22l3 12 7 13 8 9 14 8 10 3 21 2v2h-16l-15-3-15-8-9-9-6-9-4-11-2-13v-15l2-12 5-11h2l1-5z" fill="#198EAA"/>
<path transform="translate(385,484)" d="m0 0h2l-2 4-13 13-1 3h-2l-1 3-4 3-1 7-3 3h-2l-2 11 1 4 6-9 10-10v3l-8 9-9 13-3 5-4 14h-1v-14l2-12 5-14 8-12 11-12 10-10z" fill="#711D48"/>
<path transform="translate(730,267)" d="m0 0h5l1 10v10l-3 1h-10l1-2-5-1-3-3 3-1 3-3h3l2-9z" fill="#F32B6A"/>
<path transform="translate(450,470)" d="m0 0v3l-6 7-7 6-7 8 5-4h3 2v2l-4 2h-3l-1 5-6 2 1 5-3 1-4-2-3 3-2 4-3-2 7-7 2-4z" fill="#1ABEBD"/>
<path transform="translate(456,546)" d="m0 0h2l-2 6-5 10-3 12v22l2 12-2-1v-4h-2l-2-11v-15l2-12 5-11h2l1-5z" fill="#19B1B9"/>
<path transform="translate(444,407)" d="m0 0h1l1 6v13l-3 13-8 15-6 5 2-4 7-11 4-11 1-6h-2l-1 2-3 2v-3l5-12z" fill="#6D1D47"/>
<path transform="translate(660,331)" d="m0 0 2 2-6 9-6 15-1 36h-1l-1-9v-24l3-14 4-10h2z" fill="#73E6C7"/>
<path transform="translate(463,454)" d="m0 0 1 3-5 8-4 4-3 5h-2l-2 4-3 5h-2l2 4-4-1-1 3-6 3-5 4 2-4 7-8 3-1 1-3 5-4 7-11 7-10z" fill="#1ECBBE"/>
<path transform="translate(580,529)" d="m0 0 4 4 6 12 3 12v7l-2-1-4-13-5-10-5-6v-3h3z" fill="#FC875A"/>
<path transform="translate(528,416)" d="m0 0h1v32l-3 14-4 10-2-2h2l-1-4 1-3 3-12 1-11v-15h2z" fill="#19BABB"/>
<path transform="translate(688,604)" d="m0 0 2 1-9 12-11 13-8 9-5 4-2-1 3-3v-3l6-3 2-4 4-1 1-3 1-2h2l1-5h3v-2h2l2-5h2l2-6z" fill="#232744"/>
<path transform="translate(306,326)" d="m0 0v3l-9 15-10 19-8 20h-1l1-8 5-12 8-16 9-16h2l2-4z" fill="#9DEECF"/>
<path transform="translate(446,603)" d="m0 0h2l1 4 3 3 6 11 7 8-1 2-5-3-7-9-4-9z" fill="#18A1B3"/>
<path transform="translate(269,506)" d="m0 0h2l2 10 3 8 2 9 5 15 2 8-3-3-8-24z" fill="#272644"/>
<path transform="translate(427,290)" d="m0 0h2l1 5-1 6-2-3-5 3-3 5-4 2 1-4 6-8 2-5 3 1z" fill="#16395B"/>
<path transform="translate(368,656)" d="m0 0 14 14v2l-5-2-9-6-1-3 1-2-2-1z" fill="#FC4D64"/>
<path transform="translate(275,389)" d="m0 0 1 4-5 19-4 27h-1v-11l6-33z" fill="#9DEECF"/>
<path transform="translate(291,552)" d="m0 0h1l2 25-2-1-7-16-1-3 3-1 1 4 2-1z" fill="#412345"/>
<path transform="translate(705,311)" d="m0 0 2 1v34l-2-1-1-21v-12z" fill="#9DEECF"/>
<path transform="translate(385,484)" d="m0 0h2l-2 4-13 13-1 3h-2l-1 3-6 4 2-4 9-10 11-11z" fill="#841F4D"/>
<path transform="translate(376,257)" d="m0 0m-2 1h2v2l-10 7-9 7-7 6-2-1 8-8h2v-2l12-8h2v-2z" fill="#9DEECF"/>
<path transform="translate(442,480)" d="m0 0h4l-1 3h-2l2 4-4-1-1 3-6 3-5 4 2-4 7-8 3-1z" fill="#1BC7BE"/>
<path transform="translate(638,656)" d="m0 0 3 1-17 12-9 5-2-1 5-5 9-3 1-2z" fill="#232643"/>
<path transform="translate(504,698)" d="m0 0h8l4 2-1 2-8 1v-2h-12l3-2z" fill="#153459"/>
<path transform="translate(670,627)" d="m0 0v3l-8 9-5 4-2-1 3-3v-3l6-3 2-4z" fill="#1E2D48"/>
<path transform="translate(660,331)" d="m0 0 2 2-6 9-5 12-1-2 3-10 1-6h2z" fill="#51F3C1"/>
<path transform="translate(462,630)" d="m0 0 6 1 11 7-1 2-6-2-9-6z" fill="#1893AC"/>
<path transform="translate(456,546)" d="m0 0h2l-2 6-5 10-2 6-2-3 2-6 2-5h2l1-5z" fill="#189FB3"/>
<path transform="translate(450,470)" d="m0 0v3l-6 7-7 6-4 4-2-1z" fill="#19AEB7"/>
<path transform="translate(285,548)" d="m0 0h2l3 7v5h-3l-1-3-2-1z" fill="#153A61"/>
<path transform="translate(373,516)" d="m0 0v3l-8 9-6 8-2-1 6-9z" fill="#6D1D47"/>
<path transform="translate(446,579)" d="m0 0h1l1 17 2 12-2-1v-4h-2l-1-11z" fill="#19A8B4"/>
<path transform="translate(446,603)" d="m0 0h2l1 4 3 3v5l6 8-1 3-7-10-4-11z" fill="#1893AD"/>
<path transform="translate(429,687)" d="m0 0 10 5v2l-7-1-6-2 1-3z" fill="#15385E"/>
<path transform="translate(295,512)" d="m0 0 1 4-1 9-2 8h-1v-11l2-9z" fill="#FB9D5C"/>
<path transform="translate(282,535)" d="m0 0 5 1-2 12-3-4-1-7z" fill="#163E66"/>
<path transform="translate(408,667)" d="m0 0 1 2h2l5 6-2 4-4-4 1-3-5-2z" fill="#163E66"/>
<path transform="translate(672,627)" d="m0 0 3 1-6 5v2l-4 1 3-5zm-8 9m-1 1m-1 1m-2 1 3 1-2 3-5 1z" fill="#C0EFD3"/>
<path transform="translate(580,529)" d="m0 0 4 4 3 5v2l-4-1-6-8h3z" fill="#FA9B6C"/>
<path transform="translate(555,690)" d="m0 0h9l-1 4-4 1h-5z" fill="#153C64"/>
<path transform="translate(590,548)" d="m0 0 2 4 1 5v7l-2-1-3-13h2z" fill="#FD775C"/>
<path transform="translate(392,328)" d="m0 0 1 3-5 5-4-2 2-4z" fill="#3EE4C0"/>
<path transform="translate(508,786)" d="m0 0h1l1 13h2l1 5-3 1-2-4z" fill="#153358"/>
<path transform="translate(469,533)" d="m0 0 2 2-6 7-5 5v-3l5-7h2z" fill="#17395B"/>
<path transform="translate(570,521)" d="m0 0 4 2 6 6v2h-3l-5-5-1-3-2-1z" fill="#FAF3DA"/>
<path transform="translate(339,289)" d="m0 0v3l-2 4-6 4-1 3h-2l1-4z" fill="#3CE0C0"/>
<path transform="translate(589,556)" d="m0 0 2 4 2 3h1v8h-2l-3-8z" fill="#FB4565"/>
<path transform="translate(436,345)" d="m0 0 1 3-5 5h-2l-2 4-2 2v-3l7-8z" fill="#FAE7C9"/>
<path transform="translate(519,473)" d="m0 0 1 4-5 8h-2l1-5 3-6z" fill="#18A9B6"/>
<path transform="translate(454,467)" d="m0 0 2 1-4 6h-2l-2 4-4 2 6-8 2-4z" fill="#1ED8C0"/>
<path transform="translate(300,495)" d="m0 0h1v7l-3 5h-2l3-10z" fill="#FAAE6C"/>
<path transform="translate(680,617)" d="m0 0h3l-2 5-6 4v-3z" fill="#A7EBD0"/>
<path transform="translate(688,604)" d="m0 0 2 1-8 11-2-2 2-3h2l2-6z" fill="#272848"/>
<path transform="translate(701,585)" d="m0 0 2 1-2 6-4 5-2-1z" fill="#9FECCF"/>
<path transform="translate(320,619)" d="m0 0h6l2 5-3 2z" fill="#FD5463"/>
<path transform="translate(420,298)" d="m0 0h1v6l-4 4h-2l1-4z" fill="#163C5D"/>
</svg>
